Coordinates
version=1
nRows=38
nColumns=12
inDegrees=yes

Units are S.I. units (second, meters, Newtons, ...)
Angles are in degrees

endheader
time	SC_y	SC_z	SC_x	AC_y	AC_z	AC_x	GH_y	GH_z	GH_yy	EL_x	PS_y
       0.0              -50.64          5.245          74.92          55.61         -15.56        0.06215          46.01          82.98         -178.1          44.28          143.0
   0.02811              -50.64          5.247          74.92          55.61         -15.56        0.06497          46.02          82.96         -178.0          44.29          143.0
   0.05623              -50.63          5.249          74.91          55.61         -15.56        0.06795          46.03          82.95         -178.0          44.29          143.0
   0.08434              -50.63          5.251          74.91          55.61         -15.56        0.07113          46.04          82.93         -178.0           44.3          142.9
    0.1125              -50.62          5.254          74.91          55.61         -15.56        0.07451          46.05          82.91         -177.9          44.31          142.9
    0.1406              -50.61          5.256           74.9          55.61         -15.56        0.07811          46.06           82.9         -177.9          44.32          142.9
    0.1687              -50.61          5.259           74.9          55.61         -15.56        0.08196          46.07          82.88         -177.8          44.33          142.9
    0.1968               -50.6          5.262          74.89          55.61         -15.56        0.08608          46.08          82.86         -177.8          44.34          142.9
    0.2249              -50.59          5.265          74.88          55.62         -15.56        0.09049          46.09          82.84         -177.8          44.35          142.8
     0.253              -50.58          5.269          74.88          55.62         -15.56        0.09521           46.1          82.81         -177.7          44.36          142.8
    0.2811              -50.57          5.272          74.87          55.62         -15.56         0.1003          46.12          82.79         -177.6          44.37          142.8
    0.3093              -50.56          5.276          74.86          55.62         -15.56         0.1058          46.13          82.76         -177.6          44.38          142.8
    0.3374              -50.55           5.28          74.86          55.62         -15.56         0.1116          46.15          82.73         -177.5           44.4          142.7
    0.3655              -50.54          5.285          74.85          55.63         -15.56          0.118          46.17           82.7         -177.5          44.41          142.7
    0.3936              -50.52           5.29          74.84          55.63         -15.56         0.1249          46.19          82.67         -177.4          44.43          142.6
    0.4217              -50.51          5.295          74.83          55.63         -15.56         0.1324          46.21          82.63         -177.3          44.45          142.6
    0.4498              -50.49          5.301          74.82          55.63         -15.56         0.1405          46.23          82.59         -177.2          44.46          142.6
    0.4779              -50.48          5.307           74.8          55.64         -15.56         0.1493          46.25          82.55         -177.1          44.49          142.5
    0.5061              -50.46          5.314          74.79          55.64         -15.56          0.159          46.28           82.5         -177.0          44.51          142.5
    0.5342              -50.44          5.322          74.78          55.64         -15.56         0.1696          46.31          82.45         -176.9          44.53          142.4
    0.5623              -50.42           5.33          74.76          55.65         -15.56         0.1812          46.34          82.39         -176.8          44.56          142.3
    0.5904              -50.39          5.339          74.74          55.65         -15.56         0.1939          46.38          82.33         -176.7          44.59          142.3
    0.6185              -50.37          5.349          74.73          55.65         -15.56          0.208          46.42          82.26         -176.5          44.62          142.2
    0.6466              -50.34           5.36           74.7          55.66         -15.56         0.2237          46.46          82.19         -176.3          44.66          142.1
    0.6747               -50.3          5.373          74.68          55.66         -15.56         0.2411          46.51           82.1         -176.2           44.7          142.0
    0.7028              -50.27          5.387          74.65          55.67         -15.56         0.2605          46.56          82.01         -176.0          44.75          141.9
     0.731              -50.22          5.402          74.62          55.68         -15.56         0.2822          46.62           81.9         -175.7           44.8          141.8
    0.7591              -50.18           5.42          74.59          55.69         -15.56         0.3066          46.69          81.78         -175.5          44.85          141.6
    0.7872              -50.13          5.439          74.55          55.69         -15.56         0.3342          46.77          81.65         -175.2          44.92          141.5
    0.8153              -50.07          5.462          74.51           55.7         -15.56         0.3656          46.85          81.49         -174.8          44.99          141.3
    0.8434               -50.0          5.487          74.46          55.72         -15.56         0.4014          46.95          81.32         -174.5          45.08          141.1
    0.8715              -49.92          5.517          74.41          55.73         -15.56         0.4425          47.07          81.12         -174.0          45.17          140.9
    0.8996              -49.83          5.551          74.34          55.74         -15.56         0.4899           47.2          80.89         -173.5          45.28          140.6
    0.9278              -49.73           5.59          74.27          55.76         -15.57          0.545          47.35          80.62         -172.9          45.41          140.3
    0.9559               -49.6          5.636          74.18          55.78         -15.57         0.6094          47.53          80.31         -172.3          45.56          139.9
     0.984              -49.46           5.69          74.08          55.81         -15.57         0.6854          47.74          79.93         -171.5          45.74          139.5
     1.012              -49.29          5.755          73.96          55.84         -15.57         0.7757          47.99          79.49         -170.5          45.95          139.0
      1.04              -49.08          5.832          73.81          55.87         -15.57          0.884          48.29          78.97         -169.3          46.21          138.4
